{  "asset": {    "version": "2.0",    "generator": "THREE.GLTFExporter r167"  },  "scenes": [    {      "name": "AuxScene",      "nodes": [        5      ]    }  ],  "scene": 0,  "nodes": [    {      "mesh": 0    },    {      "mesh": 1    },    {      "mesh": 2    },    {      "mesh": 3    },    {      "mesh": 4    },    {      "children": [        0,        1,        2,        3,        4      ]    }  ],  "bufferViews": [    {      "buffer": 0,      "byteOffset": 0,      "byteLength": 97056,      "target": 34962,      "byteStride": 12    },    {      "buffer": 0,      "byteOffset": 97056,      "byteLength": 97056,      "target": 34962,      "byteStride": 12    },    {      "buffer": 0,      "byteOffset": 194112,      "byteLength": 64704,      "target": 34962,      "byteStride": 8    },    {      "buffer": 0,      "byteOffset": 258816,      "byteLength": 1800,      "target": 34963    },    {      "buffer": 0,      "byteOffset": 260616,      "byteLength": 480,      "target": 34963    },    {      "buffer": 0,      "byteOffset": 261096,      "byteLength": 264,      "target": 34963    },    {      "buffer": 0,      "byteOffset": 261360,      "byteLength": 240,      "target": 34963    },    {      "buffer": 0,      "byteOffset": 261600,      "byteLength": 48,      "target": 34963    },    {      "buffer": 0,      "byteOffset": 261648,      "byteLength": 132,      "target": 34963    },    {      "buffer": 0,      "byteOffset": 261780,      "byteLength": 12156,      "target": 34963    },    {      "buffer": 0,      "byteOffset": 273936,      "byteLength": 444,      "target": 34963    },    {      "buffer": 0,      "byteOffset": 274380,      "byteLength": 108,      "target": 34963    },    {      "buffer": 0,      "byteOffset": 274488,      "byteLength": 24,      "target": 34963    },    {      "buffer": 0,      "byteOffset": 274512,      "byteLength": 480,      "target": 34963    },    {      "buffer": 0,      "byteOffset": 274992,      "byteLength": 11160,      "target": 34962,      "byteStride": 12    },    {      "buffer": 0,      "byteOffset": 286152,      "byteLength": 11160,      "target": 34962,      "byteStride": 12    },    {      "buffer": 0,      "byteOffset": 297312,      "byteLength": 7440,      "target": 34962,      "byteStride": 8    },    {      "buffer": 0,      "byteOffset": 304752,      "byteLength": 52848,      "target": 34962,      "byteStride": 12    },    {      "buffer": 0,      "byteOffset": 357600,      "byteLength": 52848,      "target": 34962,      "byteStride": 12    },    {      "buffer": 0,      "byteOffset": 410448,      "byteLength": 35232,      "target": 34962,      "byteStride": 8    },    {      "buffer": 0,      "byteOffset": 445680,      "byteLength": 7440,      "target": 34963    },    {      "buffer": 0,      "byteOffset": 453120,      "byteLength": 1368,      "target": 34963    },    {      "buffer": 0,      "byteOffset": 454488,      "byteLength": 105696,      "target": 34962,      "byteStride": 12    },    {      "buffer": 0,      "byteOffset": 560184,      "byteLength": 105696,      "target": 34962,      "byteStride": 12    },    {      "buffer": 0,      "byteOffset": 665880,      "byteLength": 70464,      "target": 34962,      "byteStride": 8    },    {      "buffer": 0,      "byteOffset": 736344,      "byteLength": 14880,      "target": 34963    },    {      "buffer": 0,      "byteOffset": 751224,      "byteLength": 2736,      "target": 34963    },    {      "buffer": 0,      "byteOffset": 753960,      "byteLength": 52848,      "target": 34962,      "byteStride": 12    },    {      "buffer": 0,      "byteOffset": 806808,      "byteLength": 52848,      "target": 34962,      "byteStride": 12    },    {      "buffer": 0,      "byteOffset": 859656,      "byteLength": 35232,      "target": 34962,      "byteStride": 8    },    {      "buffer": 0,      "byteOffset": 894888,      "byteLength": 7440,      "target": 34963    },    {      "buffer": 0,      "byteOffset": 902328,      "byteLength": 1368,      "target": 34963    }  ],  "buffers": [    {      "byteLength": 903696,      "uri": "data:application/octet-stream;base64,"    }  ],  "accessors": [    {      "bufferView": 0,      "componentType": 5126,      "count": 8088,      "max": [        18.66525650024414,        15.963202476501465,        36.32617950439453      ],      "min": [        -18.66525650024414,        -10.592395782470703,        -38.414642333984375      ],      "type": "VEC3"    },    {      "bufferView": 1,      "componentType": 5126,      "count": 8088,      "max": [        1,        1,        1      ],      "min": [        -1,        -1,        -1      ],      "type": "VEC3"    },    {      "bufferView": 2,      "componentType": 5126,      "count": 8088,      "max": [        1,        1      ],      "min": [        0,        0      ],      "type": "VEC2"    },    {      "bufferView": 3,      "componentType": 5123,      "count": 900,      "max": [        899      ],      "min": [        0      ],      "type": "SCALAR"    },    {      "bufferView": 4,      "componentType": 5123,      "count": 240,      "max": [        1139      ],      "min": [        900      ],      "type": "SCALAR"    },    {      "bufferView": 5,      "componentType": 5123,      "count": 132,      "max": [        1271      ],      "min": [        1140      ],      "type": "SCALAR"    },    {      "bufferView": 6,      "componentType": 5123,      "count": 120,      "max": [        1391      ],      "min": [        1272      ],      "type": "SCALAR"    },    {      "bufferView": 7,      "componentType": 5123,      "count": 24,      "max": [        1415      ],      "min": [        1392      ],      "type": "SCALAR"    },    {      "bufferView": 8,      "componentType": 5123,      "count": 66,      "max": [        1481      ],      "min": [        1416      ],      "type": "SCALAR"    },    {      "bufferView": 9,      "componentType": 5123,      "count": 6078,      "max": [        7559      ],      "min": [        1482      ],      "type": "SCALAR"    },    {      "bufferView": 10,      "componentType": 5123,      "count": 222,      "max": [        7781      ],      "min": [        7560      ],      "type": "SCALAR"    },    {      "bufferView": 11,      "componentType": 5123,      "count": 54,      "max": [        7835      ],      "min": [        7782      ],      "type": "SCALAR"    },    {      "bufferView": 12,      "componentType": 5123,      "count": 12,      "max": [        7847      ],      "min": [        7836      ],      "type": "SCALAR"    },    {      "bufferView": 13,      "componentType": 5123,      "count": 240,      "max": [        8087      ],      "min": [        7848      ],      "type": "SCALAR"    },    {      "bufferView": 14,      "componentType": 5126,      "count": 930,      "max": [        20.10767364501953,        6.261225700378418,        40.10951232910156      ],      "min": [        -20.10767364501953,        -11.17459774017334,        -40.10951232910156      ],      "type": "VEC3"    },    {      "bufferView": 15,      "componentType": 5126,      "count": 930,      "max": [        1,        1,        1      ],      "min": [        -1,        -1,        -1      ],      "type": "VEC3"    },    {      "bufferView": 16,      "componentType": 5126,      "count": 930,      "max": [        0.8749961853027344,        1      ],      "min": [        0,        0      ],      "type": "VEC2"    },    {      "bufferView": 17,      "componentType": 5126,      "count": 4404,      "max": [        -13.21938419342041,        0.1754572093486786,        27.956005096435547      ],      "min": [        -19.836193084716797,        -15.963202476501465,        11.81631088256836      ],      "type": "VEC3"    },    {      "bufferView": 18,      "componentType": 5126,      "count": 4404,      "max": [        1,        1,        0.99969482421875      ],      "min": [        -1,        -1,        -0.99969482421875      ],      "type": "VEC3"    },    {      "bufferView": 19,      "componentType": 5126,      "count": 4404,      "max": [        1,        1      ],      "min": [        0,        0      ],      "type": "VEC2"    },    {      "bufferView": 20,      "componentType": 5123,      "count": 3720,      "max": [        3719      ],      "min": [        0      ],      "type": "SCALAR"    },    {      "bufferView": 21,      "componentType": 5123,      "count": 684,      "max": [        4403      ],      "min": [        3720      ],      "type": "SCALAR"    },    {      "bufferView": 22,      "componentType": 5126,      "count": 8808,      "max": [        19.836193084716797,        0.1754572093486786,        -16.951509475708008      ],      "min": [        -19.836193084716797,        -15.963202476501465,        -33.09120559692383      ],      "type": "VEC3"    },    {      "bufferView": 23,      "componentType": 5126,      "count": 8808,      "max": [        1,        1,        0.99969482421875      ],      "min": [        -1,        -1,        -0.99969482421875      ],      "type": "VEC3"    },    {      "bufferView": 24,      "componentType": 5126,      "count": 8808,      "max": [        1,        1      ],      "min": [        0,        0      ],      "type": "VEC2"    },    {      "bufferView": 25,      "componentType": 5123,      "count": 7440,      "max": [        7439      ],      "min": [        0      ],      "type": "SCALAR"    },    {      "bufferView": 26,      "componentType": 5123,      "count": 1368,      "max": [        8807      ],      "min": [        7440      ],      "type": "SCALAR"    },    {      "bufferView": 27,      "componentType": 5126,      "count": 4404,      "max": [        19.836193084716797,        0.1754572093486786,        27.956005096435547      ],      "min": [        13.21938419342041,        -15.963202476501465,        11.81631088256836      ],      "type": "VEC3"    },    {      "bufferView": 28,      "componentType": 5126,      "count": 4404,      "max": [        1,        1,        0.99969482421875      ],      "min": [        -1,        -1,        -0.99969482421875      ],      "type": "VEC3"    },    {      "bufferView": 29,      "componentType": 5126,      "count": 4404,      "max": [        1,        1      ],      "min": [        0,        0      ],      "type": "VEC2"    },    {      "bufferView": 30,      "componentType": 5123,      "count": 3720,      "max": [        3719      ],      "min": [        0      ],      "type": "SCALAR"    },    {      "bufferView": 31,      "componentType": 5123,      "count": 684,      "max": [        4403      ],      "min": [        3720      ],      "type": "SCALAR"    }  ],  "materials": [    {      "pbrMetallicRoughness": {        "baseColorFactor": [          0.006359903398502224,          0.006359903398502224,          0.006359903398502224,          1        ],        "metallicFactor": 0.5,        "roughnessFactor": 0.5      },      "doubleSided": true,      "name": "mat1"    },    {      "pbrMetallicRoughness": {        "baseColorFactor": [          0.6038273388475408,          0.6038273388475408,          0.6038273388475408,          1        ],        "metallicFactor": 0.5,        "roughnessFactor": 0.5      },      "emissiveFactor": [        29.63063618579755,        29.63063618579755,        29.63063618579755      ],      "name": "mat2"    },    {      "pbrMetallicRoughness": {        "baseColorFactor": [          0.6038273388475408,          0.6038273388475408,          0.6038273388475408,          1        ],        "metallicFactor": 0.5,        "roughnessFactor": 0.5      },      "emissiveFactor": [        0.7816661508535059,        0.7816661508535059,        0.7816661508535059      ],      "name": "mat3"    },    {      "pbrMetallicRoughness": {        "baseColorFactor": [          0.6038273388475408,          0.002133126934848,          0.002133126934848,          1        ],        "metallicFactor": 0.5,        "roughnessFactor": 0.5      },      "emissiveFactor": [        0.6049466129800585,        0.00020897832816,        0.000070433436528      ],      "name": "mat4"    },    {      "pbrMetallicRoughness": {        "baseColorFactor": [          0.6038273388475408,          0.3724675325989455,          0.002133126934848,          1        ],        "metallicFactor": 0.5,        "roughnessFactor": 0.5      },      "emissiveFactor": [        1,        0.7475691142243391,        0.0017825077398239998      ],      "name": "mat5"    },    {      "pbrMetallicRoughness": {        "baseColorFactor": [          0.01041043513974266,          0.009366918373241839,          0.00182662538688,          1        ],        "metallicFactor": 0.5,        "roughnessFactor": 0.5      },      "name": "mat6"    },    {      "pbrMetallicRoughness": {        "baseColorFactor": [          0.000706656346704,          0.000706656346704,          0.000706656346704,          1        ],        "metallicFactor": 0.5,        "roughnessFactor": 0.5      },      "name": "mat7"    },    {      "pbrMetallicRoughness": {        "baseColorFactor": [          0.00023993808048,          0.00023993808048,          0.00023993808048,          1        ],        "metallicFactor": 0.5,        "roughnessFactor": 0.5      },      "name": "mat8"    },    {      "pbrMetallicRoughness": {        "baseColorFactor": [          0.0040201256765407855,          0.0030835913310720002,          0.00439796973907414,          1        ],        "metallicFactor": 0.5,        "roughnessFactor": 0.5      },      "name": "mat9"    },    {      "pbrMetallicRoughness": {        "baseColorFactor": [          0.6038273388475408,          0.6038273388475408,          0.6038273388475408,          1        ],        "metallicFactor": 0.5,        "roughnessFactor": 0.5      },      "name": "mat10"    },    {      "pbrMetallicRoughness": {        "baseColorFactor": [          0.005978763100512946,          0.005978763100512946,          0.005978763100512946,          1        ],        "metallicFactor": 0.5,        "roughnessFactor": 0.5      },      "name": "mat11"    },    {      "pbrMetallicRoughness": {        "baseColorFactor": [          0.000376934984496,          0.000391640866848,          0.000660216718224,          1        ],        "metallicFactor": 0.5,        "roughnessFactor": 0.5      },      "name": "mat0"    }  ],  "meshes": [    {      "primitives": [        {          "mode": 4,          "attributes": {            "POSITION": 0,            "NORMAL": 1,            "TEXCOORD_0": 2          },          "indices": 3,          "material": 0        },        {          "mode": 4,          "attributes": {            "POSITION": 0,            "NORMAL": 1,            "TEXCOORD_0": 2          },          "indices": 4,          "material": 1        },        {          "mode": 4,          "attributes": {            "POSITION": 0,            "NORMAL": 1,            "TEXCOORD_0": 2          },          "indices": 5,          "material": 2        },        {          "mode": 4,          "attributes": {            "POSITION": 0,            "NORMAL": 1,            "TEXCOORD_0": 2          },          "indices": 6,          "material": 3        },        {          "mode": 4,          "attributes": {            "POSITION": 0,            "NORMAL": 1,            "TEXCOORD_0": 2          },          "indices": 7,          "material": 4        },        {          "mode": 4,          "attributes": {            "POSITION": 0,            "NORMAL": 1,            "TEXCOORD_0": 2          },          "indices": 8,          "material": 5        },        {          "mode": 4,          "attributes": {            "POSITION": 0,            "NORMAL": 1,            "TEXCOORD_0": 2          },          "indices": 9,          "material": 6        },        {          "mode": 4,          "attributes": {            "POSITION": 0,            "NORMAL": 1,            "TEXCOORD_0": 2          },          "indices": 10,          "material": 7        },        {          "mode": 4,          "attributes": {            "POSITION": 0,            "NORMAL": 1,            "TEXCOORD_0": 2          },          "indices": 11,          "material": 8        },        {          "mode": 4,          "attributes": {            "POSITION": 0,            "NORMAL": 1,            "TEXCOORD_0": 2          },          "indices": 12,          "material": 9        },        {          "mode": 4,          "attributes": {            "POSITION": 0,            "NORMAL": 1,            "TEXCOORD_0": 2          },          "indices": 13,          "material": 10        }      ]    },    {      "primitives": [        {          "mode": 4,          "attributes": {            "POSITION": 14,            "NORMAL": 15,            "TEXCOORD_0": 16          },          "material": 0        }      ]    },    {      "primitives": [        {          "mode": 4,          "attributes": {            "POSITION": 17,            "NORMAL": 18,            "TEXCOORD_0": 19          },          "indices": 20,          "material": 11        },        {          "mode": 4,          "attributes": {            "POSITION": 17,            "NORMAL": 18,            "TEXCOORD_0": 19          },          "indices": 21,          "material": 10        }      ]    },    {      "primitives": [        {          "mode": 4,          "attributes": {            "POSITION": 22,            "NORMAL": 23,            "TEXCOORD_0": 24          },          "indices": 25,          "material": 11        },        {          "mode": 4,          "attributes": {            "POSITION": 22,            "NORMAL": 23,            "TEXCOORD_0": 24          },          "indices": 26,          "material": 10        }      ]    },    {      "primitives": [        {          "mode": 4,          "attributes": {            "POSITION": 27,            "NORMAL": 28,            "TEXCOORD_0": 29          },          "indices": 30,          "material": 11        },        {          "mode": 4,          "attributes": {            "POSITION": 27,            "NORMAL": 28,            "TEXCOORD_0": 29          },          "indices": 31,          "material": 10        }      ]    }  ]}